<svg width="1197" height="1491" viewBox="0 0 1197 1491" fill="none" xmlns="http://www.w3.org/2000/svg">
<path d="M682.35 37.1813L643.075 23.8785L666.513 59.3528L643.075 96.094L682.35 84.0581L710.856 119.532V75.823L755.199 59.3528L710.856 45.4164V1.70703L682.35 37.1813Z" fill="#1A1A1A" stroke="black"/>
<path d="M974.126 302.098L947.232 308.335L944.114 335.618L929.693 313.791L904.748 319.248L920.339 297.811L904.748 274.815L931.642 284.949L949.571 264.292L947.232 291.185L974.126 302.098Z" fill="#1A1A1A" stroke="black"/>
<path d="M114.452 122.42L93.9656 140.926L104.482 166.293L81.2796 154.21L62.1191 171.088L65.3447 144.779L40.5522 132.241L68.9839 128.047L74.6325 101.284L85.6415 125.932L114.452 122.42Z" fill="#1A1A1A" stroke="black"/>
<path d="M396.975 111.426L370.632 119.684L369.592 147.125L353.557 126.455L329.098 133.788L343.018 111.23L325.728 89.483L353.313 97.5478L369.623 75.5902L369.331 102.583L396.975 111.426Z" fill="#1A1A1A" stroke="black"/>
<path d="M1170.81 459.071L1158.47 483.768L1177.51 503.561L1151.5 500.761L1139.8 523.46L1133.22 497.783L1105.56 495.138L1130.51 480.875L1126.02 453.894L1145.26 472.837L1170.81 459.071Z" fill="#1A1A1A" stroke="black"/>
<path d="M1116.19 511.408L924.28 688.123C883.5 580.175 626.823 485.82 563.653 466.629C500.483 447.438 322.168 407.457 253.401 405.059C198.388 403.139 152.65 422.384 136.657 432.246L83.0828 176.368C179.037 308.785 311.24 331.76 365.348 326.696C515.676 319.659 634.286 178.767 674.8 109.2C677.199 218.748 682.796 375.473 811.534 474.625C914.525 553.947 1057.55 532.198 1116.19 511.408Z" fill="#1A1A1A" stroke="black"/>
<path d="M161.54 513.879L188.029 540.981C174.595 525.053 171.898 502.906 172.229 493.824C172.229 474.268 226.326 466.872 253.374 465.618C333.834 458.598 500.448 503.613 573.698 526.998C774.415 596.416 848.285 673.994 860.131 704.105C863.63 731.218 830.978 740.183 814.214 741.276C870.189 751.771 894.386 720.869 899.488 704.105C903.861 683.115 863.411 644.341 842.639 627.578C809.404 592.593 656.057 527.727 583.537 499.667C504.823 466.615 330.631 439.979 253.374 430.791C218.39 432.249 147.547 440.412 144.048 461.403C140.55 482.393 154.252 505.133 161.54 513.879Z" fill="#1A1A1A" stroke="black"/>
<path d="M208.221 1490.44H1.26904L3.69954 563.075H468.412C731.245 584.689 783.984 774.537 777.5 866.759C789.604 1046.59 650.47 1137.58 579.39 1160.6L805.559 1490.44H567.57L368.194 1192.91H208.221V1490.44Z" fill="#1A1A1A" stroke="black"/>
<path d="M423.953 747.072H208.282V1010.78H423.953C549.062 1015.69 573.525 922.197 570.118 874.838C572.571 774.26 473.696 747.753 423.953 747.072Z" fill="white" stroke="black"/>
<path d="M927.427 495.98C833.171 479.683 780.61 413.212 766.112 382.013C826.013 388.62 892.008 350.998 917.517 331.361C893.733 409.321 914.214 473.59 927.427 495.98Z" fill="#1A1A1A" stroke="black"/>
<path d="M446.274 278.927C356.909 313.04 277.776 282.722 249.381 263.299C304.259 238.396 341.795 172.352 353.702 142.443C373.056 221.619 423.481 266.423 446.274 278.927Z" fill="#1A1A1A" stroke="black"/>
</svg>
