<svg width="906" height="965" viewBox="0 0 906 965" fill="none" xmlns="http://www.w3.org/2000/svg">
<path d="M212.055 884.823C131.74 877.051 41.4929 881.585 6.40893 884.823L1.55542 875.327L121.797 715.512L142.598 710.946L323.214 494.816L243.561 497.819L174.054 517.139L203.48 458.287L195.863 429.81H393.413L573.151 246.834C509.434 223.516 286.441 225.243 182.909 229.022L140.808 256.549C140.808 288.934 132.172 311.064 127.854 318.081C91.5822 316.786 84.6734 289.474 85.7529 275.98L223.39 75.1917C264.844 51.8743 302.195 44.9654 315.688 44.4257C545.624 73.5724 782.036 62.2376 837.091 60.6183C881.135 59.3229 875.954 21.2161 867.857 2.32467C898.947 -5.4478 905.64 18.5172 905.101 31.4713C853.284 136.4 779.877 225.243 749.651 256.549H678.404L450.087 429.81C689.738 449.242 771.241 489.723 782.036 507.535C722.448 497.172 483.012 496.74 370.743 497.819C304.677 552.227 244.981 652.189 223.39 695.37C271.321 694.074 403.129 702.386 463.041 706.704C675.489 761.112 806.325 768.237 845.188 764.998C876.278 755.93 858.142 727.755 845.188 714.801H867.857C901.538 736.823 900.243 764.998 895.385 776.333C824.137 864.421 742.634 938.259 710.789 964.167C556.959 925.305 312.45 894.539 212.055 884.823Z" fill="#1A1A1A" stroke="#1A1A1A"/>
</svg>
